HIERARCHY
ROOT Hips
{
	OFFSET 0.00000 0.00000 0.00000
	CHANNELS 6 Xposition Yposition Zposition Zrotation Yrotation Xrotation 
	JOINT LHipJoint
	{
		OFFSET 0 0 0
		CHANNELS 3 Zrotation Yrotation Xrotation
		JOINT LeftUpLeg
		{
			OFFSET 1.65412 -1.54119 0.76744
			CHANNELS 3 Zrotation Yrotation Xrotation
			JOINT LeftLeg
			{
				OFFSET 2.19550 -6.03209 0.00000
				CHANNELS 3 Zrotation Yrotation Xrotation
				JOINT LeftFoot
				{
					OFFSET 2.38814 -6.56138 0.00000
					CHANNELS 3 Zrotation Yrotation Xrotation
					JOINT LeftToeBase
					{
						OFFSET 0.17337 -0.47632 1.75875
						CHANNELS 3 Zrotation Yrotation Xrotation
						End Site
						{
							OFFSET 0.00000 -0.00000 0.92050
						}
					}
				}
			}
		}
	}
	JOINT RHipJoint
	{
		OFFSET 0 0 0
		CHANNELS 3 Zrotation Yrotation Xrotation
		JOINT RightUpLeg
		{
			OFFSET -1.40291 -1.54119 0.76744
			CHANNELS 3 Zrotation Yrotation Xrotation
			JOINT RightLeg
			{
				OFFSET -2.22156 -6.10370 0.00000
				CHANNELS 3 Zrotation Yrotation Xrotation
				JOINT RightFoot
				{
					OFFSET -2.46840 -6.78188 0.00000
					CHANNELS 3 Zrotation Yrotation Xrotation
					JOINT RightToeBase
					{
						OFFSET -0.15659 -0.43024 1.84117
						CHANNELS 3 Zrotation Yrotation Xrotation
						End Site
						{
							OFFSET -0.00000 -0.00000 0.95587
						}
					}
				}
			}
		}
	}
	JOINT LowerBack
	{
		OFFSET 0 0 0
		CHANNELS 3 Zrotation Yrotation Xrotation
		JOINT Spine
		{
			OFFSET -0.01936 1.82120 -0.32061
			CHANNELS 3 Zrotation Yrotation Xrotation
			JOINT Spine1
			{
				OFFSET -0.00532 1.85767 -0.00071
				CHANNELS 3 Zrotation Yrotation Xrotation
				JOINT Neck
				{
					OFFSET 0 0 0
					CHANNELS 3 Zrotation Yrotation Xrotation
					JOINT Neck1
					{
						OFFSET -0.10687 1.58194 0.10810
						CHANNELS 3 Zrotation Yrotation Xrotation
						JOINT Head
						{
							OFFSET 0.15346 1.57382 -0.25612
							CHANNELS 3 Zrotation Yrotation Xrotation
							End Site
							{
								OFFSET 0.05334 1.61251 -0.10513
							}
						}
					}
				}
				JOINT LeftShoulder
				{
					OFFSET 0 0 0
					CHANNELS 3 Zrotation Yrotation Xrotation
					JOINT LeftArm
					{
						OFFSET 2.85758 0.89498 -0.01485
						CHANNELS 3 Zrotation Yrotation Xrotation
						JOINT LeftForeArm
						{
							OFFSET 4.79185 -0.00000 -0.00000
							CHANNELS 3 Zrotation Yrotation Xrotation
							JOINT LeftHand
							{
								OFFSET 2.65553 -0.00000 0.00000
								CHANNELS 3 Zrotation Yrotation Xrotation
								JOINT LeftFingerBase
								{
									OFFSET 0 0 0
									CHANNELS 3 Zrotation Yrotation Xrotation
									JOINT LeftHandIndex1
									{
										OFFSET 0.74390 -0.00000 0.00000
										CHANNELS 3 Zrotation Yrotation Xrotation
										End Site
										{
											OFFSET 0.59975 -0.00000 0.00000
										}
									}
								}
								JOINT LThumb
								{
									OFFSET 0 0 0
									CHANNELS 3 Zrotation Yrotation Xrotation
									End Site
									{
										OFFSET 0.60891 -0.00000 0.60891
									}
								}
							}
						}
					}
				}
				JOINT RightShoulder
				{
					OFFSET 0 0 0
					CHANNELS 3 Zrotation Yrotation Xrotation
					JOINT RightArm
					{
						OFFSET -2.93906 0.88031 0.02490
						CHANNELS 3 Zrotation Yrotation Xrotation
						JOINT RightForeArm
						{
							OFFSET -4.77254 -0.00000 -0.00000
							CHANNELS 3 Zrotation Yrotation Xrotation
							JOINT RightHand
							{
								OFFSET -2.75995 -0.00000 -0.00000
								CHANNELS 3 Zrotation Yrotation Xrotation
								JOINT RightFingerBase
								{
									OFFSET 0 0 0
									CHANNELS 3 Zrotation Yrotation Xrotation
									JOINT RightHandIndex1
									{
										OFFSET -0.70162 -0.00000 0.00000
										CHANNELS 3 Zrotation Yrotation Xrotation
										End Site
										{
											OFFSET -0.56566 -0.00000 0.00000
										}
									}
								}
								JOINT RThumb
								{
									OFFSET 0 0 0
									CHANNELS 3 Zrotation Yrotation Xrotation
									End Site
									{
										OFFSET -0.57430 -0.00000 0.57430
									}
								}
							}
						}
					}
				}
			}
		}
	}
}
MOTION
Frames: 8
Frame Time: .0083333
1.2883 15.1675 -0.9281 0 0 0 0 0 0 -21 0 0 0 0 0 0 0 0 0 0 0 0 0 0 21 0 0 0 0 0 0 0 0 0 0 0 0 0 0 0 0 0 0 0 0 0 0 -16 0 0 21 0 0 11 0 0 0 -8 0 0 0 0 0 0 0 0 0 0 0 0 0 0 0 0 0 0 0 0 8 0 0 0 0 0 0 0 0 0 0 0 0 0 0 0 0 0
1.2883 15.1675 -0.9281 8.9141 8.4145 5.0866 0.0000 0.0000 0.0000 -29.8689 -14.5021 -20.7131 4.7012 13.0392 39.5153 0.6457 -2.9568 -14.4615 0.2389 -3.1456 -8.6842 0.0000 0.0000 0.0000 1.7177 18.3167 -20.0862 -7.2511 -15.5398 49.8179 -1.2343 -14.3047 -30.4599 -0.2411 3.1598 -8.7239 12.5149 -4.0719 28.3426 11.5150 -0.1472 5.4209 5.6661 -0.2476 -8.9451 -20.7174 -19.7128 5.0712 13.9672 -27.3224 -0.5554 5.6129 -13.7664 3.6754 -0.0000 -0.0000 0.0000 -85.6417 5.8816 37.1440 21.9392 -32.9083 -6.5528 -0.0000 0.0000 -15.3429 6.5341 10.3708 1.1812 -7.1250 0.0000 -0.0000 -17.8142 39.7747 2.3822 -0.0000 -0.0000 0.0000 63.9592 10.4652 -2.3793 -20.5900 31.3466 -5.8352 0.0000 -0.0000 -1.7054 -8.4727 11.2577 -1.6657 7.1250 -0.0000 -0.0000 13.0586 -18.7565 8.3862
1.2773 15.1582 -0.9406 9.3888 7.8889 5.2026 0.0000 0.0000 0.0000 -30.3009 -14.1432 -20.8844 4.6615 12.9921 39.3389 0.6416 -2.9271 -14.4177 0.2300 -3.0869 -8.5209 0.0000 0.0000 0.0000 1.0897 18.6398 -20.4987 -7.3108 -15.5881 50.0403 -1.1265 -14.6315 -30.0554 -0.3318 3.7022 -10.2404 12.4955 -4.3268 28.2190 11.1738 -0.5818 5.6336 5.4379 -0.4428 -8.6358 -21.2052 -19.6986 5.3005 14.0293 -27.3685 -0.5348 5.6869 -13.7978 3.7254 -0.0000 -0.0000 0.0000 -85.5363 5.6510 36.8856 22.0907 -33.0793 -6.6353 -0.0000 0.0000 -15.8763 6.8008 10.3493 1.2273 -7.1250 0.0000 -0.0000 -17.5843 39.7761 2.3485 -0.0000 -0.0000 0.0000 64.0093 11.0580 -1.7086 -20.3844 31.1026 -5.7286 0.0000 -0.0000 -1.7395 -8.5655 11.4735 -1.7161 7.1250 -0.0000 -0.0000 12.9823 -18.5402 8.3986
1.2715 15.1632 -0.9444 9.7008 7.2556 5.3434 0.0000 0.0000 0.0000 -30.5780 -13.6983 -20.9910 4.5714 12.8843 38.9368 0.6331 -2.7765 -14.3405 0.2431 -3.1731 -8.7611 0.0000 0.0000 0.0000 0.6245 19.1381 -20.8072 -7.3389 -15.6107 50.1446 -1.1286 -14.5422 -29.9847 -0.3247 3.6626 -10.1295 12.6690 -4.5433 28.1201 10.8089 -0.8897 5.7277 5.0489 -0.5885 -8.4705 -21.5005 -19.6754 5.6820 13.9532 -27.4121 -0.6205 5.7321 -13.8321 3.6737 0.0000 0.0000 0.0000 -85.4233 5.6172 36.4178 22.1807 -33.1807 -6.6845 -0.0000 0.0000 -15.8963 6.8149 10.1948 1.2117 -7.1250 0.0000 -0.0000 -17.5307 39.6291 2.4067 0.0000 0.0000 0.0000 64.2711 11.3359 -1.2593 -20.2413 30.9320 -5.6549 0.0000 -0.0000 -1.5926 -8.5976 11.7383 -1.7618 7.1250 -0.0000 -0.0000 12.9458 -18.2782 8.4509
1.2604 15.1703 -0.9498 10.1027 6.6585 5.4369 0.0000 0.0000 0.0000 -30.9391 -13.1962 -21.0618 4.4815 12.7749 38.5317 0.6185 -2.7265 -14.1762 0.2328 -3.1051 -8.5715 0.0000 0.0000 0.0000 0.1125 19.6384 -21.0609 -7.3723 -15.6376 50.2689 -1.1010 -14.5915 -29.8471 -0.3661 3.8864 -10.7574 12.5523 -4.6916 28.1380 10.5190 -1.1523 5.7675 4.8826 -0.7107 -8.4309 -21.7780 -19.6026 6.1977 13.7915 -27.4127 -0.7328 5.7776 -13.8480 3.5713 -0.0000 -0.0000 0.0000 -85.4322 5.5710 35.9992 22.1326 -33.1266 -6.6582 -0.0000 0.0000 -15.7249 6.7815 10.0786 1.1922 -7.1250 0.0000 -0.0000 -17.5275 39.5151 2.4574 -0.0000 -0.0000 0.0000 64.4960 11.4175 -0.8005 -20.1561 30.8299 -5.6111 0.0000 -0.0000 -1.3819 -8.6816 11.9858 -1.8162 7.1250 -0.0000 -0.0000 12.8750 -18.0305 8.4746
1.2479 15.1754 -0.9574 10.5526 6.0790 5.2950 0.0000 0.0000 0.0000 -31.4078 -12.5801 -20.8741 4.3807 12.6505 38.0738 0.6080 -2.7184 -14.0525 0.2452 -3.1866 -8.7987 0.0000 0.0000 0.0000 -0.3832 20.1527 -21.0210 -7.4029 -15.6620 50.3820 -1.1722 -14.1844 -29.9406 -0.3056 3.5541 -9.8254 12.3717 -4.8840 28.3541 10.2074 -1.4542 5.8331 4.7494 -0.8509 -8.4509 -22.0936 -19.4603 6.9611 13.6616 -27.3672 -1.0002 5.8787 -13.8469 3.3867 0.0000 0.0000 0.0000 -85.3941 5.6100 35.7326 22.1561 -33.1530 -6.6710 -0.0000 0.0000 -15.8485 6.7135 10.0999 1.1826 -7.1250 0.0000 -0.0000 -17.5902 39.5300 2.4601 0.0000 0.0000 0.0000 64.6094 11.3925 0.0605 -20.1355 30.8052 -5.6006 0.0000 -0.0000 -1.5664 -8.8608 11.9197 -1.8442 7.1250 -0.0000 -0.0000 12.7550 -18.0872 8.3751
1.2354 15.1801 -0.9637 10.8308 5.4506 4.9940 0.0000 0.0000 0.0000 -31.7051 -11.8886 -20.5717 4.2849 12.5301 37.6342 0.6000 -2.6740 -13.9634 0.2499 -3.2169 -8.8832 0.0000 0.0000 0.0000 -0.6150 20.7553 -20.8045 -7.4353 -15.6877 50.5020 -1.2400 -13.8323 -30.0683 -0.2449 3.1843 -8.7923 12.2237 -5.0816 28.7938 10.0028 -1.7056 5.9537 4.7102 -0.9682 -8.5052 -22.3510 -19.3207 7.6429 13.4596 -27.3071 -1.3908 5.9571 -13.8319 3.1556 0.0000 0.0000 0.0000 -85.4920 5.5951 35.4737 22.1694 -33.1680 -6.6783 -0.0000 0.0000 -16.0870 6.7582 9.9779 1.1763 -7.1250 0.0000 -0.0000 -17.5201 39.4167 2.5004 0.0000 0.0000 0.0000 64.5514 11.4686 0.9830 -20.1032 30.7665 -5.5841 0.0000 -0.0000 -1.7537 -8.9461 11.6087 -1.8144 7.1250 -0.0000 -0.0000 12.7120 -18.3898 8.2581
1.2199 15.1841 -0.9693 11.1355 4.9283 4.9012 0.0000 0.0000 0.0000 -31.9618 -11.3901 -20.4430 4.1975 12.4187 37.2297 0.5865 -2.7000 -13.7964 0.2294 -3.0830 -8.5100 0.0000 0.0000 0.0000 -0.8996 21.2522 -20.8384 -7.4705 -15.7156 50.6321 -1.2203 -13.9138 -30.0117 -0.2696 3.3398 -9.2263 11.8631 -5.2307 29.0439 9.9076 -1.9834 6.0649 4.8969 -1.0918 -8.4907 -22.5662 -19.2039 8.1251 13.2071 -27.2446 -1.7506 5.9957 -13.8065 2.9502 -0.0000 -0.0000 0.0000 -85.7658 5.5360 35.2499 21.9257 -32.8930 -6.5455 -0.0000 0.0000 -15.8030 7.5028 9.1317 1.1974 -7.1250 0.0000 -0.0000 -16.6798 38.6606 2.6936 -0.0000 -0.0000 0.0000 64.3707 11.6491 1.9897 -20.0746 30.7322 -5.5694 0.0000 -0.0000 -1.8958 -8.8830 11.0823 -1.7208 7.1250 -0.0000 -0.0000 12.7839 -18.9117 8.1551
